<?xml version="1.0" encoding="utf-8"?>
<!-- Generator: Adobe Illustrator 17.1.0, SVG Export Plug-In . SVG Version: 6.00 Build 0)  -->
<!DOCTYPE svg PUBLIC "-//W3C//DTD SVG 1.1//EN" "http://www.w3.org/Graphics/SVG/1.1/DTD/svg11.dtd">
<svg version="1.1" id="Layer_1" xmlns="http://www.w3.org/2000/svg" xmlns:xlink="http://www.w3.org/1999/xlink" x="0px" y="0px"
	 viewBox="0 0 800 800" enable-background="new 0 0 800 800" xml:space="preserve">
<g>
	<g>
		<path fill="#001F3F" d="M368.1,17.8c17.6,21.1,46.3,21.1,63.9,0l3.4-4c17.6-21.1,40.3-17.5,50.5,8l1.9,4.9
			c10.2,25.5,37.5,34.4,60.8,19.7l4.4-2.8c23.2-14.6,43.7-4.2,45.5,23.2l0.3,5.2c1.8,27.4,25.1,44.3,51.7,37.6l5.1-1.3
			c26.6-6.7,42.9,9.5,36.1,36.1l-1.3,5.1c-6.7,26.6,10.2,49.9,37.6,51.7l5.2,0.3c27.4,1.8,37.8,22.3,23.2,45.5l-2.8,4.4
			c-14.6,23.2-5.7,50.6,19.7,60.8l4.9,1.9c25.5,10.2,29.1,32.9,8,50.5l-4,3.4c-21.1,17.6-21.1,46.3,0,63.9l4,3.4
			c21.1,17.6,17.5,40.3-8,50.5l-4.9,1.9c-25.5,10.2-34.4,37.5-19.7,60.8l2.8,4.4c14.6,23.2,4.2,43.7-23.2,45.5l-5.2,0.3
			c-27.4,1.8-44.3,25.1-37.6,51.7l1.3,5.1c6.7,26.6-9.5,42.9-36.1,36.1l-5.1-1.3c-26.6-6.7-49.9,10.2-51.7,37.6l-0.3,5.2
			c-1.8,27.4-22.3,37.8-45.5,23.2l-4.4-2.8c-23.2-14.6-50.6-5.7-60.8,19.7l-1.9,4.9c-10.2,25.5-32.9,29.1-50.5,8l-3.4-4
			c-17.6-21.1-46.3-21.1-63.9,0l-3.4,4c-17.6,21.1-40.3,17.5-50.5-8l-1.9-4.9c-10.2-25.5-37.5-34.4-60.8-19.7l-4.4,2.8
			c-23.2,14.6-43.7,4.2-45.5-23.2l-0.3-5.2c-1.8-27.4-25.1-44.3-51.7-37.6l-5.1,1.3c-26.6,6.7-42.9-9.5-36.1-36.1l1.3-5.1
			c6.7-26.6-10.2-49.9-37.6-51.7l-5.2-0.3c-27.4-1.8-37.8-22.3-23.2-45.5l2.8-4.4c14.6-23.2,5.7-50.6-19.7-60.8l-4.9-1.9
			c-25.5-10.2-29.1-32.9-8-50.5l4-3.4c21.1-17.6,21.1-46.3,0-63.9l-4-3.4c-21.1-17.6-17.5-40.3,8-50.5l4.9-1.9
			c25.5-10.2,34.4-37.5,19.7-60.8l-2.8-4.4c-14.6-23.2-4.2-43.7,23.2-45.5l5.2-0.3c27.4-1.8,44.3-25.1,37.6-51.7l-1.3-5.1
			c-6.7-26.6,9.5-42.9,36.1-36.1l5.1,1.3c26.6,6.7,49.9-10.2,51.7-37.6l0.3-5.2c1.8-27.4,22.3-37.8,45.5-23.2l4.4,2.8
			c23.2,14.6,50.6,5.7,60.8-19.7l1.9-4.9c10.2-25.5,32.9-29.1,50.5-8L368.1,17.8z"/>
	</g>
	<g>
		<g>
			<path fill="#FCF5D8" d="M433.8,560.1H272.1V236.7h161.7c2.4,0,23.8,0.3,45.6,11.2c31.2,15.6,48.4,45,48.4,82.8
				s-17.2,67.2-48.4,82.8c-21.9,10.9-43.3,11.2-45.6,11.2H324.9v82.5h108.7c0.9,0,12.6-0.5,23.4-6.3c7.8-4.2,18.1-12.3,18.1-35
				c0-9.6-1.9-17.6-5.6-23.6c0,0,16.6-5.2,26.2-11.4c11.8-7.6,18.8-16.2,18.8-16.2c1,1.7,2,3.4,2.9,5.2c6.9,13.3,10.4,28.8,10.4,46
				c0,37.8-17.2,67.2-48.4,82.8C457.6,559.8,436.2,560.1,433.8,560.1z M324.9,372h108.7c0.9,0,12.6-0.5,23.4-6.3
				c7.8-4.2,18.1-12.3,18.1-35c0-18-5.9-28.9-19.2-35.6c-10.7-5.3-21.9-5.7-22-5.7H324.9V372z"/>
		</g>
	</g>
	<g>
		<path fill="#FCF5D8" d="M185,189l-6.2,6.3l-3.2-3.2l16-16.1l3.2,3.2l-6.2,6.3l16.6,16.5l-3.5,3.5L185,189z"/>
		<path fill="#FCF5D8" d="M229.2,145.8l4.2-2.6l6.1,9.9l11.3-7.1l-6.1-9.9l4.2-2.6l14.8,23.7l-4.2,2.6l-6.2-10l-11.3,7.1l6.2,10
			l-4.2,2.6L229.2,145.8z"/>
		<path fill="#FCF5D8" d="M294.6,112.3l19.7-6.5l1.4,4.2l-15,5l2.3,6.9l13.3-4.4l1.4,4.2l-13.3,4.4l2.4,7.1l15.2-5.1l1.4,4.2
			l-19.9,6.6L294.6,112.3z"/>
		<path fill="#FCF5D8" d="M416.6,94l12.5,1.1c3.2,0.3,5.6,1.4,7.1,3.1c1.1,1.3,1.6,2.9,1.5,4.8l0,0.1c-0.3,3.3-2.4,5-4.5,5.8
			c3.2,1.4,5.3,3.5,4.9,7.3l0,0.1c-0.4,5-4.8,7.3-11,6.7l-12.9-1.1L416.6,94z M427.5,118.6c3.3,0.3,5.5-0.8,5.7-3.3l0-0.1
			c0.2-2.3-1.5-3.9-5.4-4.2l-7.8-0.7l-0.7,7.6L427.5,118.6z M427.1,106.7c3.1,0.3,5.4-0.8,5.6-3.3l0-0.1c0.2-2.2-1.4-3.7-4.6-4
			l-7-0.6l-0.7,7.4L427.1,106.7z"/>
		<path fill="#FCF5D8" d="M487.5,106.3l19.6,6.6l-1.4,4.2l-15-5l-2.3,6.9l13.3,4.5l-1.4,4.2l-13.3-4.4l-2.4,7.1l15.2,5.1l-1.4,4.2
			l-19.8-6.6L487.5,106.3z"/>
		<path fill="#FCF5D8" d="M551.6,133.9l17.6,10.9l-2.3,3.7l-13.4-8.3l-3.8,6.2l11.9,7.4l-2.3,3.7l-11.9-7.4l-3.9,6.4l13.6,8.4
			l-2.3,3.7l-17.8-11L551.6,133.9z"/>
		<path fill="#FCF5D8" d="M607.7,175.3l8.8,8.8c2.5,2.5,3.7,5.2,3.7,7.7c0,2.1-0.9,4.2-2.6,5.9l-0.1,0.1c-3.2,3.2-7.1,3.2-10.7,1.3
			l-2.1,12.8l-4.1-4.1l2-11.7l-4.3-4.3l-6.9,6.9L588,195L607.7,175.3z M606.5,193.6c2.5,2.5,5.4,2.8,7.4,0.8l0.1-0.1
			c2.1-2.1,1.7-4.8-0.8-7.4l-5.1-5l-6.6,6.6L606.5,193.6z"/>
	</g>
	<g>
		<path fill="#FCF5D8" d="M214.9,604.3l8.4,7.1c5,4.2,5.7,9.7,2.1,14l-0.1,0.1c-4,4.8-10,4.1-14.7,0.1l-4.2-3.6l-5.8,6.9l-3.8-3.2
			L214.9,604.3z M213.7,622.2c2.8,2.4,6,2.3,7.8,0.1l0.1-0.1c2.1-2.5,1.4-5.3-1.4-7.7l-4.4-3.7l-6.5,7.7L213.7,622.2z"/>
		<path fill="#FCF5D8" d="M266.3,640.9l11.1,5.6c3.1,1.6,5.1,3.7,6,6.1c0.6,2,0.5,4.3-0.6,6.4l0,0.1c-2.1,4.1-5.8,5.3-9.8,4.6
			l2,12.8l-5.2-2.6l-1.8-11.8l-5.5-2.8l-4.4,8.7l-4.4-2.2L266.3,640.9z M270.9,658.8c3.1,1.6,6,0.9,7.2-1.6l0-0.1
			c1.3-2.7,0.2-5.1-3.1-6.7l-6.4-3.2l-4.2,8.4L270.9,658.8z"/>
		<path fill="#FCF5D8" d="M322.5,679.1L322.5,679.1c1.7-7.8,9.1-12.9,17.5-11c8.4,1.9,12.8,9.5,11.1,17.2l0,0.1
			c-1.7,7.7-9.1,12.8-17.4,10.9S320.8,686.7,322.5,679.1z M346,684.3L346,684.3c1.2-5.4-1.7-10.6-7.1-11.8
			c-5.4-1.2-10.2,2.3-11.3,7.6l0,0.1c-1.2,5.3,1.7,10.6,7.1,11.8C340.1,693.1,344.8,689.6,346,684.3z"/>
		<path fill="#FCF5D8" d="M392.9,699.1l3.2-3.4c1.7,2,3.3,3.2,5.7,3.2c2.6,0,4.4-1.8,4.3-5.5l-0.3-18.3l5-0.1l0.3,18.4
			c0.1,3.3-0.9,5.8-2.5,7.5c-1.6,1.7-3.9,2.5-6.7,2.6C397.6,703.5,394.8,701.5,392.9,699.1z"/>
		<path fill="#FCF5D8" d="M454.2,669.9l20.2-4.8l1,4.3l-15.4,3.6l1.7,7.1l13.6-3.2l1,4.3l-13.6,3.2l1.7,7.3l15.6-3.7l1,4.3
			l-20.4,4.8L454.2,669.9z"/>
		<path fill="#FCF5D8" d="M519.7,663.7L519.7,663.7c-3.6-7.2-1.2-15.6,6.3-19.5c4.6-2.3,8.2-2.1,11.7-1l-1.2,4.7
			c-2.9-0.8-5.7-1-8.5,0.4c-4.8,2.4-6.3,8.1-3.8,13l0,0.1c2.5,4.9,7.9,7.1,12.7,4.7c3.1-1.5,4.4-3.8,5.5-6.9l4.3,1.4
			c-1.2,4-3.2,7.2-7.9,9.5C531.6,673.8,523.4,670.9,519.7,663.7z"/>
		<path fill="#FCF5D8" d="M579,615.3l-6.8,5.7l-2.9-3.5l17.3-14.6l2.9,3.5l-6.8,5.7l15.1,17.9l-3.8,3.2L579,615.3z"/>
	</g>
	<g>
		<path fill="#FF4136" d="M109.9,404.5l9.6-8.2c3.8-3.2,5.2-5,5.2-7.5c0-2.8-2-4.4-4.5-4.4c-2.6,0-4.3,1.4-6.5,4.2l-3.5-2.7
			c2.7-3.8,5.3-5.9,10.3-5.9c5.5,0,9.2,3.4,9.2,8.3v0.1c0,4.4-2.3,6.8-7.3,10.8l-5.8,4.8h13.3v4.3h-20.2V404.5z"/>
		<path fill="#FF4136" d="M146.7,394.5L146.7,394.5c0-8.1,4.9-14.5,12.2-14.5c7.3,0,12.1,6.4,12.1,14.4v0.1c0,8-4.9,14.5-12.2,14.5
			S146.7,402.4,146.7,394.5z M165.9,394.5L165.9,394.5c0-5.6-2.8-10.1-7.1-10.1c-4.3,0-7.1,4.4-7.1,9.9v0.1c0,5.5,2.8,10,7.1,10
			C163.2,404.4,165.9,400,165.9,394.5z"/>
	</g>
	<g>
		<path fill="#FF4136" d="M622.9,385.2l-5,1.4l-1-4l7.5-2.4h3.4v28.2h-4.9V385.2z"/>
		<path fill="#FF4136" d="M645.5,404.6l3-3.6c2.2,2.1,4.6,3.4,7.2,3.4c3.4,0,5.6-1.9,5.6-4.8v-0.1c0-2.8-2.4-4.6-5.8-4.6
			c-2,0-3.7,0.6-5.2,1.2l-3-2l0.8-13.7h16.7v4.4h-12.5l-0.4,6.5c1.3-0.5,2.6-0.8,4.4-0.8c5.4,0,9.7,2.9,9.7,8.8v0.1
			c0,5.7-4.2,9.5-10.3,9.5C651.5,408.8,648.1,407.1,645.5,404.6z"/>
	</g>
	<g>
		<rect x="109.3" y="427.1" fill="#FF4136" width="57.5" height="2.5"/>
	</g>
	<g>
		<rect x="614.6" y="427.1" fill="#FF4136" width="57.5" height="2.5"/>
	</g>
</g>
</svg>
